<svg xmlns="http://www.w3.org/2000/svg" width="539.298" height="383.309" viewBox="0 0 539.298 383.309">
  <g id="Group_5" data-name="Group 5" transform="translate(0)">
    <path id="Path_690" data-name="Path 690" d="M0,0H531.862c9.75,29.017,10.1,61.27-.084,90.175-15.542,44.1-55.08,78.888-100.8,88.691-57.845,12.4-119.217-13.087-176.6,1.3-40.466,10.142-74.067,39.4-97.7,73.776-16.175,23.53-28.5,49.839-47.478,71.173C81.124,356.671,41.8,373.9,0,383.309Z" transform="translate(0)" fill="#eaeaea"/>
    <g id="Group_4" data-name="Group 4" transform="translate(367.142 374.434) rotate(180)" opacity="0.3">
      <path id="Path_691" data-name="Path 691" d="M711.9,825.53c-.149.331-.3.662-.443,1a7.469,7.469,0,0,0,1.452,8.147l171.455,179.676a7.462,7.462,0,0,0,8.07,1.832q.508-.2,1.014-.4Z" transform="translate(-699.813 -742.136)" fill="#646464"/>
      <path id="Path_692" data-name="Path 692" d="M718.086,814.152l-.031.048a7.279,7.279,0,0,0,.88,8.926l180.247,188.891a7.277,7.277,0,0,0,8.874,1.3l.051-.028Z" transform="translate(-696.529 -748.273)" fill="#646464"/>
      <path id="Path_693" data-name="Path 693" d="M726.328,804.086c-1.208,1.433-2.4,2.877-3.556,4.358L916.443,1011.4c1.533-1.081,3.031-2.207,4.52-3.348Z" transform="translate(-693.373 -753.703)" fill="#646464"/>
      <path id="Path_694" data-name="Path 694" d="M704.118,853.261q-.226,2.06-.393,4.138a7.408,7.408,0,0,0,2.052,5.685l138.6,145.245a7.4,7.4,0,0,0,5.582,2.315q2.083-.069,4.152-.2Z" transform="translate(-703.66 -727.177)" fill="#646464"/>
      <path id="Path_695" data-name="Path 695" d="M708.45,893.6a139.588,139.588,0,0,0,5.277,13.03,7.728,7.728,0,0,0,1.415,2.067l59.929,62.8a7.628,7.628,0,0,0,2,1.51,140.141,140.141,0,0,0,12.77,5.882Z" transform="translate(-701.099 -705.415)" fill="#646464"/>
      <path id="Path_696" data-name="Path 696" d="M707.134,838.43q-.328,1.171-.637,2.349a7.481,7.481,0,0,0,1.866,7.023l158.073,165.653a7.481,7.481,0,0,0,6.927,2.194q1.192-.252,2.377-.526Z" transform="translate(-702.279 -735.177)" fill="#646464"/>
      <path id="Path_697" data-name="Path 697" d="M703.675,870.772c.179,2.28.431,4.538.727,6.785a7.493,7.493,0,0,0,2.017,4.177L816.354,996.941a7.483,7.483,0,0,0,4.078,2.209c2.229.4,4.472.757,6.741,1.045Z" transform="translate(-703.675 -717.73)" fill="#646464"/>
      <path id="Path_698" data-name="Path 698" d="M744.922,787.55q-2.323,1.6-4.573,3.293L934.722,994.536q1.792-2.173,3.5-4.414Z" transform="translate(-683.892 -762.624)" fill="#646464"/>
      <path id="Path_699" data-name="Path 699" d="M819.727,775.668a7.493,7.493,0,0,0-3.966-2.194q-3.455-.674-6.969-1.179L929.478,898.768q-.342-3.533-.852-7.015a7.468,7.468,0,0,0-2.007-4.064Z" transform="translate(-646.97 -770.853)" fill="#646464"/>
      <path id="Path_700" data-name="Path 700" d="M847.718,787.177a7.814,7.814,0,0,0-1.777-1.393,141.715,141.715,0,0,0-13.853-6.9l76.372,80.034a142.183,142.183,0,0,0-6.246-14.161,7.769,7.769,0,0,0-1.309-1.84Z" transform="translate(-634.404 -767.299)" fill="#646464"/>
      <path id="Path_701" data-name="Path 701" d="M800.77,773.678a7.4,7.4,0,0,0-5.473-2.318q-2.166.037-4.318.142L939.1,926.726q.2-2.143.345-4.306a7.4,7.4,0,0,0-2.06-5.576Z" transform="translate(-656.58 -771.358)" fill="#646464"/>
      <path id="Path_702" data-name="Path 702" d="M771.723,779.149a7.427,7.427,0,0,0-7.948-1.889q-.577.215-1.151.436l180.61,189.273q.247-.566.49-1.133a7.431,7.431,0,0,0-1.513-8.027Z" transform="translate(-671.876 -768.42)" fill="#646464"/>
      <path id="Path_703" data-name="Path 703" d="M759.792,784.5a7.3,7.3,0,0,0-8.823-1.342l-.114.063L940.288,981.736h0a7.466,7.466,0,0,0-.948-9.078Z" transform="translate(-678.224 -765.489)" fill="#646464"/>
      <path id="Path_704" data-name="Path 704" d="M930.766,1000.318,735.06,795.226q-2.067,1.877-4.064,3.825L926.755,1004.2Q928.8,1002.3,930.766,1000.318Z" transform="translate(-688.937 -758.483)" fill="#646464"/>
      <path id="Path_705" data-name="Path 705" d="M785.2,775.361a7.477,7.477,0,0,0-6.838-2.212q-1.249.247-2.491.519L943.111,948.933q.328-1.228.636-2.463a7.483,7.483,0,0,0-1.891-6.935Z" transform="translate(-664.732 -770.467)" fill="#646464"/>
    </g>
  </g>
</svg>
