<svg xmlns="http://www.w3.org/2000/svg" width="42.133" height="339.335" viewBox="0 0 42.133 339.335">
  <g id="Dots" transform="translate(-737.743 211.323) rotate(-90)">
    <path id="Path_830" data-name="Path 830" d="M-116.376,743.561a5.818,5.818,0,0,1-5.818,5.818,5.817,5.817,0,0,1-5.818-5.818,5.817,5.817,0,0,1,5.818-5.818A5.817,5.817,0,0,1-116.376,743.561Z" transform="translate(0 0)" fill="#646464"/>
    <path id="Path_831" data-name="Path 831" d="M-85.573,743.561a5.818,5.818,0,0,1-5.818,5.818,5.818,5.818,0,0,1-5.818-5.818,5.817,5.817,0,0,1,5.818-5.818A5.817,5.817,0,0,1-85.573,743.561Z" transform="translate(7.719 0)" fill="#646464"/>
    <path id="Path_832" data-name="Path 832" d="M-54.769,743.561a5.818,5.818,0,0,1-5.819,5.818,5.818,5.818,0,0,1-5.818-5.818,5.817,5.817,0,0,1,5.818-5.818A5.818,5.818,0,0,1-54.769,743.561Z" transform="translate(15.439 0)" fill="#646464"/>
    <path id="Path_833" data-name="Path 833" d="M-23.966,743.561a5.818,5.818,0,0,1-5.818,5.818,5.818,5.818,0,0,1-5.818-5.818,5.817,5.817,0,0,1,5.818-5.818A5.817,5.817,0,0,1-23.966,743.561Z" transform="translate(23.158 0)" fill="#646464"/>
    <path id="Path_834" data-name="Path 834" d="M6.837,743.561a5.818,5.818,0,1,1-5.818-5.818A5.817,5.817,0,0,1,6.837,743.561Z" transform="translate(30.878 0)" fill="#646464"/>
    <path id="Path_835" data-name="Path 835" d="M37.641,743.561a5.818,5.818,0,1,1-5.818-5.818A5.818,5.818,0,0,1,37.641,743.561Z" transform="translate(38.597 0)" fill="#646464"/>
    <path id="Path_836" data-name="Path 836" d="M68.444,743.561a5.818,5.818,0,1,1-5.818-5.818A5.818,5.818,0,0,1,68.444,743.561Z" transform="translate(46.316 0)" fill="#646464"/>
    <path id="Path_837" data-name="Path 837" d="M99.248,743.561a5.818,5.818,0,1,1-5.818-5.818A5.818,5.818,0,0,1,99.248,743.561Z" transform="translate(54.036 0)" fill="#646464"/>
    <path id="Path_838" data-name="Path 838" d="M130.051,743.561a5.818,5.818,0,1,1-5.818-5.818A5.818,5.818,0,0,1,130.051,743.561Z" transform="translate(61.755 0)" fill="#646464"/>
    <circle id="Ellipse_590" data-name="Ellipse 590" cx="5.818" cy="5.818" r="5.818" transform="translate(-108.496 768.24)" fill="#646464"/>
    <path id="Path_839" data-name="Path 839" d="M-69.967,767.947a5.818,5.818,0,0,1-5.818,5.818,5.818,5.818,0,0,1-5.818-5.818,5.818,5.818,0,0,1,5.818-5.818A5.818,5.818,0,0,1-69.967,767.947Z" transform="translate(11.63 6.111)" fill="#646464"/>
    <path id="Path_840" data-name="Path 840" d="M-39.163,767.947a5.818,5.818,0,0,1-5.818,5.818,5.818,5.818,0,0,1-5.819-5.818,5.818,5.818,0,0,1,5.819-5.818A5.818,5.818,0,0,1-39.163,767.947Z" transform="translate(19.35 6.111)" fill="#646464"/>
    <path id="Path_841" data-name="Path 841" d="M-8.36,767.947a5.818,5.818,0,0,1-5.818,5.818A5.818,5.818,0,0,1-20,767.947a5.818,5.818,0,0,1,5.818-5.818A5.818,5.818,0,0,1-8.36,767.947Z" transform="translate(27.069 6.111)" fill="#646464"/>
    <circle id="Ellipse_591" data-name="Ellipse 591" cx="5.818" cy="5.818" r="5.818" transform="translate(45.596 768.24)" fill="#646464"/>
    <circle id="Ellipse_592" data-name="Ellipse 592" cx="5.818" cy="5.818" r="5.818" transform="translate(84.119 768.24)" fill="#646464"/>
    <path id="Path_842" data-name="Path 842" d="M84.05,767.947a5.818,5.818,0,1,1-5.818-5.818A5.817,5.817,0,0,1,84.05,767.947Z" transform="translate(50.227 6.111)" fill="#646464"/>
    <path id="Path_843" data-name="Path 843" d="M114.854,767.947a5.818,5.818,0,1,1-5.818-5.818A5.818,5.818,0,0,1,114.854,767.947Z" transform="translate(57.947 6.111)" fill="#646464"/>
    <path id="Path_844" data-name="Path 844" d="M145.657,767.947a5.818,5.818,0,1,1-5.818-5.818A5.818,5.818,0,0,1,145.657,767.947Z" transform="translate(65.666 6.111)" fill="#646464"/>
  </g>
</svg>
